REM DIRINDEX 1\2\4,1\2\5,1\2\6,1\3\7,1\3\8,1\3\9,1\3\10
REM DIRNAME cjc058,folder01,folder02,folder03,folder04,folder05,folder06,folder07,folder08,folder09
TITLE ""
FILE "b_30.mp3" MP3
  TRACK 01 AUDIO
    TITLE "0:"
    INDEX 01 00:00:00
  TRACK 02 AUDIO
    TITLE "10:cjc058_3026"
    INDEX 01 00:00:13
  TRACK 03 AUDIO
    TITLE "0:"
    INDEX 01 00:03:59
  TRACK 04 AUDIO
    TITLE "7:cjc058_3027"
    INDEX 01 00:04:29
  TRACK 05 AUDIO
    TITLE "0:"
    INDEX 01 00:06:65
  TRACK 06 AUDIO
    TITLE "8:cjc058_3028"
    INDEX 01 00:07:23
  TRACK 07 AUDIO
    TITLE "0:"
    INDEX 01 00:11:21
  TRACK 08 AUDIO
    TITLE "9:cjc058_3029"
    INDEX 01 00:11:68
  TRACK 09 AUDIO
    TITLE "0:"
    INDEX 01 00:15:23
  TRACK 10 AUDIO
    TITLE "7:cjc058_3030"
    INDEX 01 00:16:32
  TRACK 11 AUDIO
    TITLE "0:"
    INDEX 01 00:18:68
  TRACK 12 AUDIO
    TITLE "8:cjc058_3031"
    INDEX 01 00:19:26
  TRACK 13 AUDIO
    TITLE "0:"
    INDEX 01 00:22:13
  TRACK 14 AUDIO
    TITLE "9:cjc058_3032"
    INDEX 01 00:22:60
  TRACK 15 AUDIO
    TITLE "0:"
    INDEX 01 00:26:30
  TRACK 16 AUDIO
    TITLE "7:cjc058_3033"
    INDEX 01 00:27:39
  TRACK 17 AUDIO
    TITLE "0:"
    INDEX 01 00:29:40
  TRACK 18 AUDIO
    TITLE "8:cjc058_3034"
    INDEX 01 00:29:74
  TRACK 19 AUDIO
    TITLE "0:"
    INDEX 01 00:32:21
  TRACK 20 AUDIO
    TITLE "9:cjc058_3035"
    INDEX 01 00:32:64
  TRACK 21 AUDIO
    TITLE "0:"
    INDEX 01 00:37:14
  TRACK 22 AUDIO
    TITLE "7:cjc058_3036"
    INDEX 01 00:38:20
  TRACK 23 AUDIO
    TITLE "0:"
    INDEX 01 00:40:26
  TRACK 24 AUDIO
    TITLE "8:cjc058_3037"
    INDEX 01 00:40:60
  TRACK 25 AUDIO
    TITLE "0:"
    INDEX 01 00:43:11
  TRACK 26 AUDIO
    TITLE "9:cjc058_3038"
    INDEX 01 00:43:56
  TRACK 27 AUDIO
    TITLE "0:"
    INDEX 01 00:47:15
  TRACK 28 AUDIO
    TITLE "7:cjc058_3039"
    INDEX 01 00:48:26
  TRACK 29 AUDIO
    TITLE "0:"
    INDEX 01 00:50:62
  TRACK 30 AUDIO
    TITLE "8:cjc058_3040"
    INDEX 01 00:51:18
  TRACK 31 AUDIO
    TITLE "0:"
    INDEX 01 00:53:09
  TRACK 32 AUDIO
    TITLE "9:cjc058_3041"
    INDEX 01 00:53:55
  TRACK 33 AUDIO
    TITLE "0:"
    INDEX 01 00:58:01
  TRACK 34 AUDIO
    TITLE "7:cjc058_3042"
    INDEX 01 00:59:04
  TRACK 35 AUDIO
    TITLE "0:"
    INDEX 01 01:01:36
  TRACK 36 AUDIO
    TITLE "8:cjc058_3043"
    INDEX 01 01:01:70
  TRACK 37 AUDIO
    TITLE "0:"
    INDEX 01 01:04:54
  TRACK 38 AUDIO
    TITLE "9:cjc058_3044"
    INDEX 01 01:05:24
  TRACK 39 AUDIO
    TITLE "0:"
    INDEX 01 01:07:45
  TRACK 40 AUDIO
    TITLE "7:cjc058_3045"
    INDEX 01 01:08:48
  TRACK 41 AUDIO
    TITLE "0:"
    INDEX 01 01:10:65
  TRACK 42 AUDIO
    TITLE "8:cjc058_3046"
    INDEX 01 01:11:25
  TRACK 43 AUDIO
    TITLE "0:"
    INDEX 01 01:14:14
  TRACK 44 AUDIO
    TITLE "9:cjc058_3047"
    INDEX 01 01:14:59
  TRACK 45 AUDIO
    TITLE "0:"
    INDEX 01 01:17:53
  TRACK 46 AUDIO
    TITLE "7:cjc058_3048"
    INDEX 01 01:18:60
  TRACK 47 AUDIO
    TITLE "0:"
    INDEX 01 01:21:10
  TRACK 48 AUDIO
    TITLE "8:cjc058_3049"
    INDEX 01 01:21:43
  TRACK 49 AUDIO
    TITLE "0:"
    INDEX 01 01:24:36
  TRACK 50 AUDIO
    TITLE "9:cjc058_3050"
    INDEX 01 01:25:06
  TRACK 51 AUDIO
    TITLE "0:"
    INDEX 01 01:28:41
  TRACK 52 AUDIO
    TITLE "7:cjc058_3051"
    INDEX 01 01:29:45
  TRACK 53 AUDIO
    TITLE "0:"
    INDEX 01 01:31:51
  TRACK 54 AUDIO
    TITLE "8:cjc058_3052"
    INDEX 01 01:32:06
  TRACK 55 AUDIO
    TITLE "0:"
    INDEX 01 01:34:08
  TRACK 56 AUDIO
    TITLE "9:cjc058_3053"
    INDEX 01 01:34:50
  TRACK 57 AUDIO
    TITLE "0:"
    INDEX 01 01:38:06
  TRACK 58 AUDIO
    TITLE "7:cjc058_3054"
    INDEX 01 01:39:12
  TRACK 59 AUDIO
    TITLE "0:"
    INDEX 01 01:41:28
  TRACK 60 AUDIO
    TITLE "8:cjc058_3055"
    INDEX 01 01:41:61
  TRACK 61 AUDIO
    TITLE "0:"
    INDEX 01 01:43:64
  TRACK 62 AUDIO
    TITLE "9:cjc058_3056"
    INDEX 01 01:44:34
  TRACK 63 AUDIO
    TITLE "0:"
    INDEX 01 01:47:62
  TRACK 64 AUDIO
    TITLE "7:cjc058_3057"
    INDEX 01 01:48:71
  TRACK 65 AUDIO
    TITLE "0:"
    INDEX 01 01:50:74
  TRACK 66 AUDIO
    TITLE "8:cjc058_3058"
    INDEX 01 01:51:28
  TRACK 67 AUDIO
    TITLE "0:"
    INDEX 01 01:53:39
  TRACK 68 AUDIO
    TITLE "9:cjc058_3059"
    INDEX 01 01:54:07
  TRACK 69 AUDIO
    TITLE "0:"
    INDEX 01 01:57:60
